# xmcd
#
# Track frame offsets:
#	150
#	12445
#	24939
#	40972
#	53792
#	65820
#	78157
#	97719
#	110262
#	121315
#	132361
#	143338
#
# Disc length: 2135 seconds
#
# Revision: 1
# Processed by: cddbd v1.4PL0 Copyright (c) Steve Scherf et al.
# Submitted via: audiograbber 1.81.03
#
DISCID=9008550c
DTITLE=Bill Anderson  - 12 Classics
DYEAR=1900
DGENRE=Country
TTITLE0=The Tip Of My Fingers
TTITLE1=Po' Folks
TTITLE2=Mama Sang A Song
TTITLE3=Still
TTITLE4=Three A.M.
TTITLE5=Bright Lights and Country Music
TTITLE6=Golden Guitar
TTITLE7=I Love You Drops
TTITLE8=I Get The Fever
TTITLE9=Wild Weekend
TTITLE10=Quits
TTITLE11=The Corner Of My Life
EXTD=
EXTT0=
EXTT1=
EXTT2=
EXTT3=
EXTT4=
EXTT5=
EXTT6=
EXTT7=
EXTT8=
EXTT9=
EXTT10=
EXTT11=
PLAYORDER=
